<?xml version="1.0" standalone="no"?>
<!DOCTYPE svg PUBLIC "-//W3C//DTD SVG 20010904//EN"
 "http://www.w3.org/TR/2001/REC-SVG-20010904/DTD/svg10.dtd">
<svg version="1.0" xmlns="http://www.w3.org/2000/svg"
 width="1920.000000pt" height="1080.000000pt" viewBox="0 0 1920.000000 1080.000000"
 preserveAspectRatio="xMidYMid meet">

<g transform="translate(0.000000,1080.000000) scale(0.100000,-0.100000)"
fill="#000000" stroke="none">
<path d="M10460 8486 c-44 -29 -226 -137 -260 -153 -104 -50 -259 -114 -330
-138 -47 -15 -89 -31 -95 -35 -5 -3 -28 -11 -50 -17 -103 -29 -185 -52 -235
-67 -93 -27 -388 -84 -520 -100 -69 -8 -170 -20 -225 -27 -55 -6 -219 -12
-365 -12 -246 0 -355 7 -536 34 -53 9 -77 8 -92 0 -28 -15 -29 -54 -1 -89 45
-58 106 -149 129 -192 14 -25 30 -52 36 -60 29 -36 148 -283 200 -413 31 -78
62 -155 69 -172 57 -132 160 -444 172 -523 3 -18 9 -35 14 -38 5 -3 9 -16 9
-29 0 -13 5 -27 10 -30 6 -3 10 -17 10 -30 0 -13 5 -27 10 -30 6 -3 10 -17 10
-30 0 -13 5 -27 10 -30 21 -13 9 -45 -27 -72 -51 -38 -321 -303 -336 -329 -7
-11 -33 -53 -59 -92 -77 -116 -147 -267 -148 -316 0 -19 394 -426 433 -447 22
-13 66 13 122 71 22 23 56 53 75 66 19 13 54 37 77 53 60 43 97 61 110 53 5
-4 13 -25 16 -47 4 -22 11 -62 16 -90 40 -202 93 -519 108 -635 5 -43 15 -55
211 -252 113 -115 214 -210 224 -214 19 -6 95 43 133 87 33 36 308 209 334
209 4 0 19 12 33 28 18 19 28 43 32 82 4 30 11 82 17 115 27 176 37 641 17
869 -7 78 -13 170 -13 206 l0 64 35 8 c43 9 406 61 550 78 58 7 111 17 118 23
9 7 12 85 12 326 l0 316 -160 160 c-188 187 -189 191 -108 252 28 21 60 44 72
52 12 8 41 33 66 56 55 50 121 95 141 95 28 0 234 -221 342 -367 15 -21 37
-50 48 -65 23 -32 59 -36 81 -10 8 9 29 55 47 102 18 47 37 93 42 102 5 10 9
25 9 33 0 8 4 23 9 33 5 9 14 37 21 62 7 25 18 61 25 80 42 110 91 398 101
592 8 146 18 127 -123 234 -51 40 -108 97 -159 160 -43 55 -83 102 -89 105
-75 48 -232 198 -275 263 -42 64 -81 106 -99 106 -9 0 -32 -11 -51 -24z m53
-255 c37 -58 98 -120 186 -192 l45 -36 -12 -114 c-16 -168 -104 -537 -131
-553 -4 -3 -29 21 -54 54 -69 89 -305 270 -351 270 -7 0 -40 -24 -72 -54 -146
-133 -441 -337 -445 -309 -1 5 -1 11 0 16 1 6 -65 12 -109 9 -8 0 -18 6 -23
13 -8 16 -35 13 -79 -10 -17 -8 -35 -15 -39 -15 -4 0 -36 -13 -71 -29 -58 -27
-217 -93 -298 -126 -19 -7 -47 -16 -62 -19 -34 -8 -35 -23 -4 -84 26 -52 106
-244 106 -256 0 -4 9 -20 21 -35 12 -16 31 -68 43 -117 20 -83 23 -89 46 -87
14 0 97 27 185 58 88 31 207 67 265 81 58 13 123 29 146 35 38 10 46 8 112
-25 39 -20 77 -46 83 -58 13 -23 4 -317 -9 -329 -4 -4 -81 -16 -172 -28 -91
-12 -214 -31 -275 -42 -300 -56 -292 -52 -290 -131 1 -29 6 -71 12 -93 25 -93
36 -335 30 -631 -7 -306 -9 -324 -46 -305 -19 10 -277 8 -287 -2 -10 -9 -33
24 -34 47 0 11 -4 33 -10 50 -5 17 -21 81 -36 141 -14 61 -43 181 -65 267 -21
87 -39 168 -39 181 0 49 103 136 237 202 l62 30 -165 0 -164 0 -2 -30 -1 -30
-4 31 c-6 43 -32 48 -107 20 -79 -30 -253 -115 -333 -161 -35 -20 -63 -32 -63
-27 0 32 184 231 318 343 59 51 82 76 82 93 0 21 -62 237 -124 431 -14 44 -26
98 -26 121 0 65 -221 594 -339 812 -33 62 -61 120 -61 128 0 12 29 14 173 14
477 1 982 66 1333 170 242 73 545 200 749 314 55 31 107 56 115 56 8 0 32 -27
53 -59z"/>
<path d="M8528 6803 c6 -2 18 -2 25 0 6 3 1 5 -13 5 -14 0 -19 -2 -12 -5z"/>
<path d="M8640 6754 c0 -3 13 -24 28 -47 15 -23 33 -51 38 -62 16 -28 111 -35
121 -8 3 10 15 30 25 45 22 32 22 38 3 38 -8 0 -15 4 -15 8 0 8 -21 10 -132
16 -21 1 -40 5 -44 9 -9 8 -24 9 -24 1z"/>
<path d="M8195 3773 c-33 -8 -76 -18 -95 -22 -19 -5 -70 -20 -112 -35 -42 -14
-86 -26 -97 -26 -11 0 -22 -4 -25 -9 -3 -5 -23 -11 -43 -14 -119 -17 -171 -41
-213 -99 -25 -33 -30 -51 -30 -95 0 -57 15 -95 60 -153 24 -30 29 -48 34 -121
7 -93 4 -102 -46 -114 -22 -6 -27 -14 -33 -53 -4 -26 -8 -86 -9 -134 l-1 -87
43 -44 42 -43 -11 -109 c-13 -133 -7 -200 28 -277 37 -83 114 -139 228 -168
46 -11 54 -11 100 11 40 20 54 34 77 78 34 65 61 166 53 198 -9 36 -15 214 -9
250 7 37 36 49 58 24 19 -21 23 -187 6 -193 -20 -6 85 -106 144 -138 53 -29
67 -32 145 -32 55 0 91 -5 101 -13 8 -7 47 -30 85 -51 60 -32 79 -37 135 -37
75 0 126 22 201 84 l47 39 117 0 c98 0 121 -3 143 -19 72 -50 116 -65 192 -65
87 -1 122 18 160 87 21 36 23 52 20 127 -6 160 -4 245 9 348 14 123 17 132 42
132 23 0 25 -30 8 -130 -12 -77 4 -288 26 -331 24 -46 97 -109 162 -141 115
-55 207 -38 266 50 16 24 36 42 47 42 10 0 49 -16 87 -35 100 -50 173 -65 418
-83 67 -5 112 -14 135 -27 28 -15 54 -18 129 -17 51 1 97 4 101 7 5 3 14 38
20 78 20 119 36 123 142 37 40 -33 92 -69 115 -80 44 -20 118 -27 127 -11 3 4
19 11 35 14 35 7 96 59 117 98 43 84 5 155 -180 339 -83 82 -146 153 -146 163
0 10 15 37 34 60 94 116 113 255 55 382 -53 113 -159 209 -268 240 -31 9 -72
21 -92 27 -58 17 -157 -2 -237 -43 -48 -26 -59 -28 -91 -19 -20 5 -49 10 -64
10 -16 0 -42 10 -58 23 -16 12 -42 31 -57 43 -15 12 -55 33 -89 49 -68 30 -82
30 -248 1 -103 -18 -257 -21 -286 -6 -14 8 -27 6 -51 -6 -46 -24 -90 -35 -178
-45 -75 -8 -158 -20 -258 -37 -60 -10 -97 -34 -129 -83 -45 -69 -59 -70 -114
-13 -18 19 -41 34 -51 34 -10 0 -23 9 -30 20 -7 11 -19 20 -26 20 -8 0 -31 13
-51 29 -20 16 -65 44 -101 62 -58 30 -74 34 -145 34 -71 0 -87 -4 -143 -32
-73 -38 -90 -40 -125 -13 -14 11 -54 33 -89 50 -53 25 -74 30 -133 29 -38 -1
-97 -8 -130 -16z m207 -130 c24 -21 23 -54 -2 -86 -26 -33 -50 -40 -86 -27
-20 8 -42 8 -79 -1 -66 -16 -266 -96 -285 -115 -12 -11 -14 -49 -14 -199 0
-236 -9 -225 143 -188 84 21 116 25 129 17 51 -33 1 -93 -106 -127 -42 -14
-90 -28 -107 -32 -55 -12 -55 -12 -55 -224 0 -262 -22 -342 -86 -312 -49 22
-57 67 -50 261 8 195 4 220 -44 245 -42 22 -40 55 7 92 46 38 54 84 46 277
l-6 140 -44 42 c-43 43 -54 73 -30 92 7 6 48 20 92 32 44 11 127 36 185 55
226 74 353 93 392 58z m2038 -28 c23 -25 23 -27 8 -53 -20 -33 -54 -44 -239
-74 -100 -16 -143 -27 -149 -38 -16 -29 -32 -284 -39 -589 -5 -261 -8 -305
-22 -314 -21 -13 -66 9 -93 46 -20 27 -21 40 -20 250 1 122 6 301 12 397 12
216 13 216 -72 204 -33 -5 -106 -9 -161 -9 l-100 -1 -7 -70 c-7 -73 -13 -124
-48 -399 -12 -93 -24 -237 -28 -320 l-7 -150 -32 -3 c-42 -4 -69 11 -89 51
-14 27 -16 51 -10 167 4 74 8 153 9 174 2 39 2 40 -48 53 -70 18 -93 16 -105
-7 -17 -32 -40 -178 -40 -253 0 -38 -5 -77 -10 -88 -15 -26 -70 -25 -105 3
l-28 22 6 105 c4 58 16 178 27 266 11 88 23 215 27 283 7 138 12 148 71 139
69 -11 76 -31 68 -198 -7 -173 -8 -171 86 -167 l63 3 13 50 c6 28 24 131 38
230 14 99 31 186 36 193 6 6 26 12 46 12 19 0 51 4 71 9 20 5 88 15 151 22 63
6 140 19 170 28 33 10 67 14 85 10 59 -13 153 -9 250 12 55 12 102 23 104 25
2 2 23 4 46 4 32 0 47 -6 65 -25z m-1571 -1 c42 -17 55 -35 46 -65 -7 -20 -40
-34 -68 -30 -73 10 -151 -180 -117 -284 7 -21 45 -106 85 -189 90 -186 115
-260 115 -342 0 -109 -42 -189 -130 -247 -34 -23 -93 -22 -115 3 -25 27 -13
65 24 78 46 16 64 53 69 140 5 92 -19 175 -97 330 -79 158 -95 214 -95 317 0
96 12 137 61 208 27 39 74 73 121 87 41 12 58 11 101 -6z m2250 -84 c85 -43
151 -164 136 -248 -14 -79 -68 -155 -152 -213 -69 -48 -64 -57 112 -213 158
-141 219 -203 244 -250 13 -23 12 -28 -3 -45 -46 -51 -66 -37 -286 192 -85 87
-160 157 -170 157 -22 0 -26 -21 -41 -210 -6 -80 -16 -156 -22 -170 -18 -37
-50 -37 -82 2 -26 31 -27 36 -21 108 3 41 11 228 16 415 9 334 17 423 42 453
37 44 161 56 227 22z m-364 -52 c32 -14 45 -56 21 -73 -9 -7 -53 -22 -99 -35
-45 -12 -113 -32 -152 -44 -80 -24 -89 -36 -99 -128 -9 -83 -1 -88 141 -88 94
0 120 -3 135 -17 25 -22 23 -38 -8 -62 -22 -17 -42 -21 -113 -22 -120 -1 -152
-14 -169 -70 -7 -24 -14 -81 -15 -127 -2 -94 3 -103 78 -123 48 -14 174 -16
232 -5 40 8 43 7 53 -18 16 -42 12 -74 -9 -86 -26 -13 -189 -13 -265 1 -96 17
-146 40 -180 82 -31 38 -31 39 -34 182 -3 108 -8 147 -18 156 -20 17 -17 40
10 68 18 20 25 42 31 93 l6 67 -40 26 c-44 27 -54 61 -27 88 22 21 187 86 301
117 110 31 180 36 220 18z m-2259 -55 c9 -32 -3 -341 -16 -438 -5 -38 -12
-144 -16 -235 -7 -181 -14 -200 -66 -200 -84 0 -93 104 -43 535 8 72 15 177
15 236 0 68 4 109 12 117 7 7 34 12 60 12 43 0 48 -2 54 -27z m-268 -175 c-3
-50 -4 -53 -33 -56 -36 -4 -57 20 -49 57 8 32 30 51 61 51 23 0 24 -3 21 -52z"/>
<path d="M11009 3431 c-23 -19 -24 -24 -22 -152 1 -75 7 -137 13 -143 7 -7 24
4 56 34 74 73 104 147 81 202 -28 64 -88 92 -128 59z"/>
</g>
</svg>
